<mxfile host="app.diagrams.net" modified="2023-08-04T01:59:43.361Z" agent="Mozilla/5.0 (Windows NT 10.0; WOW64) AppleWebKit/537.36 (KHTML, like Gecko) Chrome/94.0.4606.71 Safari/537.36" version="21.5.2" etag="GFna6Fe5ZnwzyBsxCvvi" type="github">
  <diagram name="第 1 页" id="wJYim334s22GPHdo8HuX">
    <mxGraphModel>
      <root>
        <mxCell id="0" />
        <mxCell id="1" parent="0" />
      </root>
    </mxGraphModel>
  </diagram>
</mxfile>
